<?xml version="1.0" encoding="UTF-8"?>
<svg xmlns="http://www.w3.org/2000/svg" xmlns:xlink="http://www.w3.org/1999/xlink" width="100px" height="100px" viewBox="0 0 100 100" version="1.1">
<g id="surface48089">
<path style=" stroke:none;fill-rule:nonzero;fill:rgb(40.392157%,22.745098%,71.764706%);fill-opacity:1;" d="M 87.5 77.082031 C 87.5 82.835938 82.835938 87.5 77.082031 87.5 L 22.917969 87.5 C 17.164062 87.5 12.5 82.835938 12.5 77.082031 L 12.5 22.917969 C 12.5 17.164062 17.164062 12.5 22.917969 12.5 L 77.082031 12.5 C 82.835938 12.5 87.5 17.164062 87.5 22.917969 Z M 87.5 77.082031 "/>
<path style=" stroke:none;fill-rule:nonzero;fill:rgb(100%,100%,100%);fill-opacity:1;" d="M 68.8125 53.332031 C 67.457031 51.457031 65.5 50.167969 62.980469 49.480469 C 62.980469 49.480469 65.105469 48.707031 67.019531 45.832031 C 68.167969 44 68.75 41.792969 68.75 39.207031 C 68.75 34.730469 67.125 31.292969 63.875 28.9375 C 60.625 26.582031 56.957031 25 50.730469 25 L 31.25 25 L 31.25 75 L 52.980469 75 C 58.875 74.957031 63.3125 73.6875 66.332031 71.25 C 69.332031 68.769531 70.832031 65.105469 70.832031 60.207031 C 70.832031 57.5 70.167969 55.207031 68.8125 53.332031 Z M 43.75 33.332031 C 43.75 33.332031 52.4375 33.332031 52.605469 33.332031 C 55.769531 33.332031 58.332031 35.894531 58.332031 39.0625 C 58.332031 42.230469 55.769531 44.792969 52.605469 44.792969 C 52.4375 44.792969 43.75 44.792969 43.75 44.792969 Z M 54.167969 66.667969 L 43.75 66.667969 L 43.75 54.167969 L 54.167969 54.167969 C 57.625 54.167969 60.417969 56.957031 60.417969 60.417969 C 60.417969 63.875 57.625 66.667969 54.167969 66.667969 Z M 54.167969 66.667969 "/>
</g>
</svg>
