<?xml version="1.0" encoding="UTF-8"?>
<svg xmlns="http://www.w3.org/2000/svg" xmlns:xlink="http://www.w3.org/1999/xlink" width="100px" height="100px" viewBox="0 0 100 100" version="1.1">
<g id="surface48609">
<path style=" stroke:none;fill-rule:nonzero;fill:rgb(100%,83.921569%,0%);fill-opacity:1;" d="M 12.5 87.5 L 12.5 12.5 L 87.5 12.5 L 87.5 87.5 Z M 12.5 87.5 "/>
<path style=" stroke:none;fill-rule:nonzero;fill:rgb(0%,0%,0.392157%);fill-opacity:1;" d="M 61.539062 68.640625 C 62.980469 70.980469 64.546875 73.226562 67.863281 73.226562 C 70.652344 73.226562 72.113281 71.839844 72.113281 69.921875 C 72.113281 67.628906 70.601562 66.816406 67.535156 65.480469 L 65.855469 64.761719 C 61.003906 62.703125 57.773438 60.125 57.773438 54.675781 C 57.773438 49.65625 61.617188 45.835938 67.625 45.835938 C 71.902344 45.835938 74.976562 47.316406 77.191406 51.195312 L 71.953125 54.542969 C 70.800781 52.484375 69.554688 51.675781 67.625 51.675781 C 65.652344 51.675781 64.40625 52.917969 64.40625 54.542969 C 64.40625 56.550781 65.65625 57.363281 68.542969 58.609375 L 70.222656 59.324219 C 75.941406 61.761719 79.167969 64.246094 79.167969 69.839844 C 79.167969 75.863281 74.410156 79.167969 68.019531 79.167969 C 61.773438 79.167969 58.226562 76.03125 56.25 72.148438 Z M 37.398438 68.808594 C 38.453125 70.699219 40.054688 72.148438 42.359375 72.148438 C 44.566406 72.148438 45.832031 71.277344 45.832031 67.894531 L 45.832031 45.832031 L 52.777344 45.832031 L 52.777344 68.960938 C 52.777344 75.976562 48.707031 79.167969 42.765625 79.167969 C 37.398438 79.167969 33.523438 75.527344 31.945312 72.148438 Z M 37.398438 68.808594 "/>
</g>
</svg>
