<?xml version="1.0" encoding="UTF-8"?>
<svg xmlns="http://www.w3.org/2000/svg" xmlns:xlink="http://www.w3.org/1999/xlink" width="100px" height="100px" viewBox="0 0 100 100" version="1.1">
<g id="surface48682">
<path style=" stroke:none;fill-rule:nonzero;fill:rgb(0%,73.72549%,83.137255%);fill-opacity:1;" d="M 87.5 77.082031 C 87.5 82.835938 82.835938 87.5 77.082031 87.5 L 22.917969 87.5 C 17.164062 87.5 12.5 82.835938 12.5 77.082031 L 12.5 22.917969 C 12.5 17.164062 17.164062 12.5 22.917969 12.5 L 77.082031 12.5 C 82.835938 12.5 87.5 17.164062 87.5 22.917969 Z M 87.5 77.082031 "/>
<path style=" stroke:none;fill-rule:nonzero;fill:rgb(100%,100%,100%);fill-opacity:1;" d="M 29.167969 53.089844 L 29.167969 60.417969 L 25.015625 60.417969 L 25.015625 39.582031 L 32.847656 39.582031 C 34.898438 39.582031 36.535156 40.222656 37.753906 41.5 C 38.972656 42.777344 39.582031 44.4375 39.582031 46.480469 C 39.582031 48.523438 38.980469 50.132812 37.773438 51.316406 C 36.570312 52.5 34.898438 53.089844 32.761719 53.089844 Z M 29.203125 49.585938 L 32.847656 49.585938 C 33.644531 49.585938 34.261719 49.324219 34.699219 48.796875 C 35.136719 48.273438 35.355469 47.511719 35.355469 46.507812 C 35.355469 45.46875 35.132812 44.640625 34.683594 44.023438 C 34.238281 43.414062 33.640625 43.101562 32.890625 43.089844 L 29.203125 43.089844 Z M 64.582031 53.089844 L 64.582031 60.417969 L 60.429688 60.417969 L 60.429688 39.582031 L 68.265625 39.582031 C 70.316406 39.582031 71.953125 40.222656 73.171875 41.5 C 74.390625 42.777344 75 44.4375 75 46.480469 C 75 48.523438 74.398438 50.132812 73.191406 51.316406 C 71.984375 52.5 70.316406 53.089844 68.179688 53.089844 Z M 64.617188 49.585938 L 68.265625 49.585938 C 69.0625 49.585938 69.679688 49.324219 70.117188 48.796875 C 70.554688 48.273438 70.769531 47.511719 70.769531 46.507812 C 70.769531 45.46875 70.546875 44.640625 70.101562 44.023438 C 69.65625 43.414062 69.058594 43.101562 68.308594 43.089844 L 64.617188 43.089844 Z M 56.25 60.417969 L 52.082031 60.417969 L 52.082031 51.503906 L 45.792969 51.503906 L 45.792969 60.417969 L 41.667969 60.417969 L 41.667969 39.582031 L 45.792969 39.582031 L 45.792969 47.917969 L 52.082031 47.917969 L 52.082031 39.582031 L 56.25 39.582031 Z M 56.25 60.417969 "/>
</g>
</svg>
