<?xml version="1.0" encoding="UTF-8"?>
<svg xmlns="http://www.w3.org/2000/svg" xmlns:xlink="http://www.w3.org/1999/xlink" width="100px" height="100px" viewBox="0 0 100 100" version="1.1">
<g id="surface47619">
<path style=" stroke:none;fill-rule:nonzero;fill:rgb(81.960784%,76.862745%,91.372549%);fill-opacity:1;" d="M 85.417969 8.332031 L 14.582031 8.332031 C 12.28125 8.332031 10.417969 10.199219 10.417969 12.5 L 10.417969 29.167969 C 10.417969 31.46875 12.28125 33.332031 14.582031 33.332031 L 85.417969 33.332031 C 87.71875 33.332031 89.582031 31.46875 89.582031 29.167969 L 89.582031 12.5 C 89.582031 10.199219 87.71875 8.332031 85.417969 8.332031 M 85.417969 37.5 L 14.582031 37.5 C 12.28125 37.5 10.417969 39.363281 10.417969 41.667969 L 10.417969 58.332031 C 10.417969 60.636719 12.28125 62.5 14.582031 62.5 L 85.417969 62.5 C 87.71875 62.5 89.582031 60.636719 89.582031 58.332031 L 89.582031 41.667969 C 89.582031 39.363281 87.71875 37.5 85.417969 37.5 M 85.417969 66.667969 L 14.582031 66.667969 C 12.28125 66.667969 10.417969 68.53125 10.417969 70.832031 L 10.417969 87.5 C 10.417969 89.800781 12.28125 91.667969 14.582031 91.667969 L 85.417969 91.667969 C 87.71875 91.667969 89.582031 89.800781 89.582031 87.5 L 89.582031 70.832031 C 89.582031 68.53125 87.71875 66.667969 85.417969 66.667969 "/>
<path style=" stroke:none;fill-rule:nonzero;fill:rgb(81.960784%,76.862745%,91.372549%);fill-opacity:1;" d="M 50 16.667969 C 31.589844 16.667969 16.667969 31.589844 16.667969 50 C 16.667969 68.410156 31.589844 83.332031 50 83.332031 C 68.410156 83.332031 83.332031 68.410156 83.332031 50 C 83.332031 31.589844 68.410156 16.667969 50 16.667969 Z M 50 16.667969 "/>
<path style=" stroke:none;fill-rule:nonzero;fill:rgb(31.764706%,17.647059%,65.882353%);fill-opacity:1;" d="M 37.507812 54.976562 C 37.507812 54.132812 37.292969 53.492188 36.859375 53.0625 C 36.425781 52.628906 35.644531 52.179688 34.503906 51.714844 C 32.425781 50.929688 30.929688 50.007812 30.019531 48.945312 C 29.105469 47.886719 28.652344 46.636719 28.652344 45.195312 C 28.652344 43.445312 29.269531 42.042969 30.511719 40.984375 C 31.75 39.925781 33.324219 39.394531 35.230469 39.394531 C 36.503906 39.394531 37.636719 39.664062 38.636719 40.199219 C 39.632812 40.738281 40.398438 41.492188 40.933594 42.472656 C 41.472656 43.453125 41.738281 44.5625 41.738281 45.804688 L 37.566406 45.804688 C 37.566406 44.835938 37.359375 44.101562 36.949219 43.589844 C 36.535156 43.085938 35.941406 42.832031 35.160156 42.832031 C 34.429688 42.832031 33.859375 43.046875 33.453125 43.480469 C 33.042969 43.914062 32.839844 44.492188 32.839844 45.226562 C 32.839844 45.792969 33.066406 46.308594 33.523438 46.769531 C 33.980469 47.230469 34.785156 47.707031 35.945312 48.203125 C 37.964844 48.933594 39.433594 49.828125 40.351562 50.894531 C 41.269531 51.957031 41.726562 53.308594 41.726562 54.953125 C 41.726562 56.757812 41.152344 58.167969 40.003906 59.179688 C 38.855469 60.195312 37.292969 60.703125 35.320312 60.703125 C 33.980469 60.703125 32.761719 60.429688 31.660156 59.878906 C 30.554688 59.328125 29.695312 58.539062 29.074219 57.515625 C 28.449219 56.488281 28.140625 55.277344 28.140625 53.882812 L 32.339844 53.882812 C 32.339844 55.078125 32.574219 55.949219 33.039062 56.488281 C 33.503906 57.03125 34.265625 57.300781 35.320312 57.300781 C 36.777344 57.296875 37.507812 56.523438 37.507812 54.976562 Z M 59.082031 51.660156 C 59.082031 55.085938 58.160156 57.578125 56.304688 59.136719 L 59.167969 61.699219 L 56.535156 64.117188 L 52.714844 60.628906 L 51.621094 60.699219 C 49.277344 60.699219 47.441406 59.902344 46.117188 58.3125 C 44.792969 56.722656 44.125 54.523438 44.117188 51.710938 L 44.117188 48.464844 C 44.117188 45.617188 44.777344 43.390625 46.097656 41.792969 C 47.414062 40.191406 49.246094 39.394531 51.59375 39.394531 C 53.882812 39.394531 55.691406 40.164062 57.019531 41.699219 C 58.347656 43.238281 59.039062 45.398438 59.082031 48.179688 Z M 54.882812 48.441406 C 54.882812 46.550781 54.613281 45.152344 54.070312 44.253906 C 53.527344 43.351562 52.703125 42.898438 51.59375 42.898438 C 50.484375 42.898438 49.664062 43.339844 49.128906 44.214844 C 48.597656 45.097656 48.324219 46.429688 48.304688 48.226562 L 48.304688 51.660156 C 48.304688 53.554688 48.578125 54.957031 49.121094 55.859375 C 49.667969 56.761719 50.503906 57.210938 51.621094 57.210938 C 52.714844 57.210938 53.527344 56.765625 54.066406 55.867188 C 54.601562 54.972656 54.878906 53.601562 54.886719 51.757812 L 54.886719 48.441406 Z M 66.289062 56.941406 L 73.636719 56.941406 L 73.636719 60.417969 L 62.105469 60.417969 L 62.105469 39.679688 L 66.292969 39.679688 L 66.292969 56.941406 Z M 66.289062 56.941406 "/>
</g>
</svg>
