<?xml version="1.0" encoding="UTF-8"?>
<svg xmlns="http://www.w3.org/2000/svg" xmlns:xlink="http://www.w3.org/1999/xlink" width="100px" height="100px" viewBox="0 0 100 100" version="1.1">
<g id="surface48093">
<path style=" stroke:none;fill-rule:nonzero;fill:rgb(74.117647%,74.117647%,74.117647%);fill-opacity:1;" d="M 49.859375 4.167969 L 6.25 19.34375 L 13.140625 75.851562 L 49.90625 95.832031 L 86.859375 75.578125 L 93.75 19.074219 Z M 49.859375 4.167969 "/>
<path style=" stroke:none;fill-rule:nonzero;fill:rgb(71.764706%,10.980392%,10.980392%);fill-opacity:1;" d="M 89.203125 21.929688 L 50 8.613281 L 50 91.03125 L 82.984375 72.953125 Z M 89.203125 21.929688 "/>
<path style=" stroke:none;fill-rule:nonzero;fill:rgb(86.666667%,17.254902%,0%);fill-opacity:1;" d="M 49.878906 8.574219 L 10.792969 22.175781 L 17.015625 73.214844 L 49.898438 91.085938 L 50 91.03125 L 50 8.613281 Z M 49.878906 8.574219 "/>
<path style=" stroke:none;fill-rule:nonzero;fill:rgb(74.117647%,74.117647%,74.117647%);fill-opacity:1;" d="M 50 12.492188 L 50 32.300781 L 67.871094 70.832031 L 77.054688 70.832031 Z M 50 12.492188 "/>
<path style=" stroke:none;fill-rule:nonzero;fill:rgb(93.333333%,93.333333%,93.333333%);fill-opacity:1;" d="M 22.945312 70.832031 L 32.128906 70.832031 L 50 32.300781 L 50 12.492188 Z M 22.945312 70.832031 "/>
<path style=" stroke:none;fill-rule:nonzero;fill:rgb(74.117647%,74.117647%,74.117647%);fill-opacity:1;" d="M 50 50 L 62.5 50 L 62.5 58.332031 L 50 58.332031 Z M 50 50 "/>
<path style=" stroke:none;fill-rule:nonzero;fill:rgb(93.333333%,93.333333%,93.333333%);fill-opacity:1;" d="M 37.5 50 L 50 50 L 50 58.332031 L 37.5 58.332031 Z M 37.5 50 "/>
</g>
</svg>
