<?xml version="1.0" encoding="UTF-8"?>
<svg xmlns="http://www.w3.org/2000/svg" xmlns:xlink="http://www.w3.org/1999/xlink" width="100px" height="100px" viewBox="0 0 100 100" version="1.1">
<g id="surface48240">
<path style=" stroke:none;fill-rule:nonzero;fill:rgb(0.784314%,46.666667%,74.117647%);fill-opacity:1;" d="M 85.417969 10.417969 L 14.582031 10.417969 L 20.832031 81.25 L 50 89.582031 L 79.167969 81.25 Z M 85.417969 10.417969 "/>
<path style=" stroke:none;fill-rule:nonzero;fill:rgb(1.176471%,60.784314%,89.803922%);fill-opacity:1;" d="M 50 16.667969 L 50 83.125 L 73.332031 76.457031 L 78.542969 16.667969 Z M 50 16.667969 "/>
<path style=" stroke:none;fill-rule:nonzero;fill:rgb(100%,100%,100%);fill-opacity:1;" d="M 68.957031 27.082031 L 50 27.082031 L 50 35.417969 L 60.207031 35.417969 L 59.582031 43.75 L 50 43.75 L 50 52.082031 L 59.167969 52.082031 L 58.542969 61.457031 L 50 64.375 L 50 73.125 L 66.457031 67.707031 L 67.917969 43.75 Z M 68.957031 27.082031 "/>
<path style=" stroke:none;fill-rule:nonzero;fill:rgb(93.333333%,93.333333%,93.333333%);fill-opacity:1;" d="M 50 27.082031 L 50 35.417969 L 31.457031 35.417969 L 30.832031 27.082031 Z M 40.417969 43.75 L 40.832031 52.082031 L 50 52.082031 L 50 43.75 Z M 41.25 56.25 L 32.917969 56.25 L 33.542969 67.707031 L 50 73.125 L 50 64.375 L 41.457031 61.457031 Z M 41.25 56.25 "/>
</g>
</svg>
